<svg id="Ebene_1" data-name="Ebene 1" xmlns="http://www.w3.org/2000/svg" viewBox="0 0 1000 1000"><defs><style>.cls-1{fill:#bc2020;}</style></defs><path class="cls-1" d="M500,975A475.12,475.12,0,0,1,315.12,62.32,475.13,475.13,0,0,1,684.88,937.68,472,472,0,0,1,500,975Z"/><path d="M500,50A450.13,450.13,0,0,1,675.15,914.66,450.13,450.13,0,0,1,324.86,85.34,447.12,447.12,0,0,1,500,50m0-50C223.86,0,0,223.86,0,500s223.86,500,500,500,500-223.86,500-500S776.14,0,500,0Z"/><path d="M863.16,841.05,550.53,5.26,437.89,6.32h0L148.42,852.63l77.9,63.16q55.29-153,110.59-305.93H659.05Q712.17,764.41,765.26,919A301.09,301.09,0,0,0,799,899a322.27,322.27,0,0,0,44.21-36.84C850.47,855,857.12,847.93,863.16,841.05Zm-502-322.85,89-262.84C467.65,200.1,482.48,144.83,496,90.92h2.69c13.48,52.56,27,106.48,47.18,165.79l89,261.49Z"/></svg>